<?xml version="1.0" encoding="UTF-8"?>
<svg id="_レイヤー_1" data-name="レイヤー_1" xmlns="http://www.w3.org/2000/svg" viewBox="0 0 188.84 188.81">
  <defs>
    <style>
      .cls-1 {
        fill: #f39800;
      }

      .cls-2 {
        fill: #fcc80e;
      }
    </style>
  </defs>
  <circle class="cls-1" cx="94.43" cy="94.41" r="61.91"/>
  <g>
    <path class="cls-1" d="M87.66,181.97c0-3.8,3.07-6.88,6.86-6.88h0c3.77,0,6.86,3.06,6.86,6.86h0c0,3.8-3.06,6.86-6.86,6.86h0c-3.8,0-6.86-3.06-6.86-6.84Z"/>
    <path class="cls-1" d="M9.89,143.42c-2.84-4.84-1.18-11.07,3.69-13.88h0c4.84-2.81,11.03-1.18,13.88,3.69h0c2.81,4.84,1.15,11.03-3.69,13.88h0c-1.62.91-3.35,1.35-5.11,1.35h0c-3.49,0-6.87-1.79-8.77-5.04Z"/>
    <path class="cls-1" d="M166.84,144.1c-3.27-1.9-4.39-6.08-2.49-9.38h0c1.9-3.27,6.08-4.39,9.35-2.49h0c3.29,1.9,4.41,6.08,2.52,9.35h0v.02h0c-1.26,2.2-3.57,3.41-5.95,3.41h0c-1.17,0-2.33-.3-3.43-.91Z"/>
    <path class="cls-1" d="M14.04,58.56c-4.29-2.47-5.75-7.92-3.3-12.21h0c2.47-4.29,7.92-5.75,12.21-3.27h0c4.26,2.44,5.75,7.92,3.28,12.18h0c-1.64,2.89-4.64,4.5-7.74,4.5h0c-1.52,0-3.04-.39-4.44-1.19Z"/>
    <path class="cls-1" d="M164.16,53.79c-1.9-3.27-.8-7.48,2.47-9.38h0c3.27-1.92,7.48-.8,9.38,2.47h0c1.92,3.27.82,7.46-2.45,9.38h0c-1.1.64-2.29.94-3.45.94h0c-2.36,0-4.67-1.21-5.95-3.41Z"/>
    <path class="cls-1" d="M87.29,6.88C87.27,3.09,90.34,0,94.13,0h0c3.8-.02,6.86,3.04,6.88,6.84h0c0,3.77-3.07,6.86-6.84,6.89h-.02c-3.77,0-6.86-3.07-6.86-6.84Z"/>
  </g>
  <g>
    <path class="cls-2" d="M47.32,176.26v-.02h0c-3.27-1.88-4.41-6.08-2.52-9.35h0c1.9-3.29,6.08-4.41,9.38-2.51h0c3.27,1.87,4.41,6.08,2.52,9.38h0c-1.28,2.2-3.57,3.43-5.95,3.43h0c-1.17,0-2.36-.3-3.43-.92Z"/>
    <path class="cls-2" d="M130.31,174.82c-2.54-4.38-1.04-10.02,3.34-12.56h0c4.38-2.54,10.02-1.04,12.56,3.34h0c2.54,4.41,1.04,10.02-3.34,12.56h0c-1.44.86-3.03,1.26-4.59,1.26h0c-3.19,0-6.25-1.65-7.96-4.59Z"/>
    <path class="cls-2" d="M0,94.61c0-3.8,3.06-6.89,6.86-6.89h0c3.8,0,6.86,3.06,6.88,6.86h0c0,3.77-3.06,6.86-6.86,6.86h0c-3.8,0-6.86-3.06-6.88-6.84Z"/>
    <path class="cls-2" d="M175.11,94.41v-.09h0v-.25h0c-.02-3.8,3.04-6.86,6.84-6.88h0c3.77-.02,6.86,3.04,6.88,6.84h0v.21h0v.18h0c0,3.8-3.06,6.86-6.86,6.86h0c-3.77,0-6.86-3.06-6.86-6.86Z"/>
    <path class="cls-2" d="M44.5,22.14c-1.9-3.27-.8-7.48,2.47-9.38h0c3.27-1.9,7.48-.8,9.38,2.47h0c1.92,3.29.8,7.48-2.47,9.4h0c-1.08.62-2.26.92-3.43.92h0c-2.38,0-4.67-1.21-5.95-3.41Z"/>
    <path class="cls-2" d="M132.51,27.89v-.04c-5.2-2.98-7.01-9.63-4.03-14.86h0c3.02-5.23,9.67-7.01,14.9-4.03h0c5.23,3.02,7.01,9.67,4.03,14.9h0c-2.04,3.49-5.71,5.45-9.48,5.45h0c-1.82,0-3.71-.44-5.42-1.42Z"/>
  </g>
</svg>