<?xml version="1.0" encoding="UTF-8"?>
<svg id="_レイヤー_1" data-name="レイヤー_1" xmlns="http://www.w3.org/2000/svg" viewBox="0 0 194.13 129.68">
  <defs>
    <style>
      .cls-1 {
        fill: #fff;
      }
    </style>
  </defs>
  <g>
    <path class="cls-1" d="M.77,117.05c.77.03,1.54.05,2.33.05,1.34,0,2.69-.05,4.01-.14-.31-.79-.62-1.63-.62-1.83,0-.48.48-.75.94-.75.38,0,.72.17.82.55.19.65.39,1.29.63,1.9,1.87-.19,3.57-.45,4.92-.75.07-.02.15-.03.22-.03.5,0,.75.46.75.89,0,.36-.17.7-.55.77-1.3.26-2.86.5-4.58.67.81,1.46,1.95,2.93,3.62,4.68.17.19.24.39.24.62,0,.55-.45,1.1-1.01,1.1-.19,0-.38-.05-.57-.19-1.71-1.15-3.81-1.94-5.9-1.94s-3.53.79-3.53,2.4c0,1.34,1.51,2.49,5.18,2.49,1.95,0,3.05-.12,4.15-.34.1-.02.21-.03.31-.03.6,0,.93.45.93.89,0,.41-.27.84-.84.91-1.35.22-2.49.33-4.54.33-4.75,0-6.98-1.68-6.98-4.25s2.38-3.96,5.33-3.96c1.63,0,2.86.33,4.34.94-1.03-1.1-1.83-2.19-2.52-3.46-1.66.12-3.41.19-5.14.19-.65,0-1.3-.02-1.95-.03-.51-.02-.77-.45-.77-.87,0-.39.22-.77.72-.77h.05Z"/>
    <path class="cls-1" d="M34.02,120.46c.46,0,.94.31.94.89,0,.05,0,.12-.02.17-.39,2.85-1.32,7.61-4.6,7.61-2.01,0-3.12-.86-3.12-3.39,0-.5.09-1.73.1-2.13,0-.19.02-.36.02-.52,0-1.1-.24-1.2-.96-1.2-1.39,0-4.54,2.42-5.69,6.98-.12.52-.5.74-.87.74-.5,0-1.01-.38-1.01-.98,0-.53,1.99-7.56,4.96-13.99.17-.38.51-.53.86-.53.5,0,.98.33.98.84,0,.14-.05.31-.14.48-1.05,2.02-1.94,4.34-2.98,7.08,1.77-1.83,2.92-2.42,4.41-2.42,1.61,0,2.19,1.01,2.19,2.79,0,.19,0,.39-.02.62-.03.48-.09,1.65-.09,2.04,0,1.37.46,1.73,1.41,1.73,1.58,0,2.49-3.22,2.78-6.04.07-.53.46-.79.86-.79Z"/>
    <path class="cls-1" d="M39.02,129.48c-.17.09-.33.12-.48.12-.55,0-.96-.52-.96-1.03,0-.34.17-.69.62-.89,2.74-1.25,4.89-3.02,6.53-5.2-1.44-1.34-2.91-2.54-4.18-3.43-.21-.15-.31-.36-.31-.58,0-.46.43-.96.96-.96.19,0,.38.05.57.19,1.25.87,2.62,1.97,4.01,3.21,1.01-1.73,1.77-3.67,2.28-5.81.1-.45.46-.65.84-.65.48,0,1.01.34,1.01.89,0,.33-.86,3.87-2.71,6.88.99.94,1.95,1.92,2.88,2.88.17.17.24.38.24.58,0,.55-.53,1.1-1.06,1.1-.22,0-.43-.09-.6-.29-.79-.91-1.66-1.82-2.55-2.69-1.78,2.3-4.1,4.15-7.08,5.69Z"/>
    <path class="cls-1" d="M61.48,119.48c-1.06-.75-2.98-1.84-4.46-2.49-.38-.17-.53-.46-.53-.75,0-.5.41-1.01.98-1.01.5,0,3.48,1.46,5.01,2.52.33.22.46.51.46.79,0,.55-.51,1.08-1.03,1.08-.14,0-.29-.03-.43-.14ZM57.74,129.39c-.07.02-.14.02-.21.02-.65,0-1.03-.55-1.03-1.06,0-.39.24-.79.74-.87,6.62-1.13,10.05-3.89,11.64-8.93.12-.38.46-.57.82-.57.5,0,.99.33.99.89,0,.09-.02.17-.03.27-1.35,5.11-5.73,9.21-12.93,10.25Z"/>
    <path class="cls-1" d="M86.87,118.66c0-.33-.21-.52-.46-.52h-6.4c-1.42,1.97-3.89,3.91-4.6,3.91-.53,0-.96-.5-.96-.98,0-.29.14-.57.46-.74,2.28-1.25,4.13-3.58,4.85-5.59.12-.34.45-.5.79-.5.48,0,.99.31.99.82,0,.29-.36,1.08-.53,1.42h5.66c1.23,0,2.01.69,2.01,1.94,0,.07-.02.15-.02.24-.38,5.86-4.61,10.19-12.59,10.72h-.07c-.63,0-.99-.53-.99-1.03,0-.39.24-.75.75-.79,2.93-.15,5.37-.93,7.22-2.16-1.29-1.34-3.26-2.83-4.18-3.33-.24-.14-.33-.34-.33-.57,0-.48.43-1.01.96-1.01.15,0,.33.03.48.14.98.57,3.24,2.21,4.53,3.55,1.42-1.46,2.26-3.33,2.42-5.5v-.03Z"/>
    <path class="cls-1" d="M95.1,115.38c0-.55.46-.81.94-.81s.93.26.93.81v5.8c0,3.46-.96,6.36-3.7,8.09-.19.12-.39.19-.57.19-.57,0-1.01-.55-1.01-1.08,0-.27.12-.53.41-.72,2.14-1.42,3-3.65,3-6.48v-5.8ZM99.32,115.33c0-.55.46-.82.94-.82s.93.27.93.82v11.08c0,.24.1.36.26.36.05,0,.1-.02.15-.03,2.11-.98,3.48-2.62,4.37-4.82.19-.46.51-.67.86-.67.48,0,.96.43.96,1.03,0,.48-1.41,4.47-5.85,6.53-.34.15-.69.22-.99.22-.93,0-1.63-.65-1.63-1.85v-11.85Z"/>
    <path class="cls-1" d="M116.69,118.14c-1.22,1.61-3.74,3.77-4.58,3.77-.57,0-.98-.5-.98-.98,0-.27.14-.55.45-.74,2.19-1.23,4.12-3.46,4.89-5.44.15-.34.5-.5.84-.5.48,0,.99.29.99.81,0,.38-.43,1.17-.55,1.41h5.69c1.27,0,1.94.69,1.94,1.8,0,.14-.02.31-.03.46-.75,5.4-3.62,9.84-11.2,10.65-.05,0-.1.02-.15.02-.62,0-.96-.5-.96-.98,0-.41.26-.82.81-.89,5.83-.67,8.92-3.76,9.62-8.85.02-.09.02-.15.02-.22,0-.26-.12-.33-.41-.33h-6.38Z"/>
    <path class="cls-1" d="M130.64,115.3c0-.52.48-.77.98-.77s.96.26.96.77v7.66c0,.57-.48.84-.96.84s-.98-.28-.98-.84v-7.66ZM133.21,129.68c-.69,0-1.06-.55-1.06-1.06,0-.43.27-.84.81-.89,5.42-.52,6.67-1.95,6.67-6.29v-6.16c0-.51.46-.75.94-.75s.93.24.93.75v6.16c0,5.64-2.19,7.7-8.16,8.25h-.12Z"/>
    <path class="cls-1" d="M147.54,128.16c-.5,0-.75-.46-.75-.93s.26-.91.75-.91h13.8c.52,0,.75.46.75.91s-.24.93-.75.93h-13.8ZM148.98,118.06c-.51,0-.77-.45-.77-.89s.26-.87.77-.87h10.96c.53,0,.79.45.79.87s-.26.89-.79.89h-10.96Z"/>
    <path class="cls-1" d="M167.28,123.65c-.29,0-.57-.15-.69-.5-.46-1.3-.98-2.38-1.58-3.31-.09-.14-.12-.27-.12-.41,0-.45.43-.82.87-.82.24,0,.5.12.69.41,1.3,1.97,1.75,3.69,1.75,3.82,0,.46-.48.81-.92.81ZM176.67,119.14c-.29,4.54-1.95,8.54-7.7,10.31-.15.05-.29.07-.43.07-.57,0-.88-.43-.88-.86,0-.34.19-.69.58-.79,5.38-1.58,6.52-4.96,6.77-8.92.02-.46.39-.69.79-.69s.86.27.86.81v.07ZM170.88,122.91c-.34,0-.65-.17-.74-.57-.26-1.27-.63-2.61-1.06-3.62-.05-.12-.07-.22-.07-.33,0-.43.45-.72.89-.72.33,0,.65.15.81.53.38.99.72,2.09,1.05,3.77.02.05.02.1.02.17,0,.46-.46.75-.89.75Z"/>
    <path class="cls-1" d="M185.43,118.14c-1.22,1.61-3.74,3.77-4.58,3.77-.57,0-.98-.5-.98-.98,0-.27.14-.55.45-.74,2.19-1.23,4.12-3.46,4.89-5.44.15-.34.5-.5.84-.5.48,0,.99.29.99.81,0,.38-.43,1.17-.55,1.41h5.69c1.27,0,1.94.69,1.94,1.8,0,.14-.02.31-.03.46-.75,5.4-3.62,9.84-11.2,10.65-.05,0-.1.02-.15.02-.62,0-.96-.5-.96-.98,0-.41.26-.82.81-.89,5.83-.67,8.92-3.76,9.62-8.85.02-.09.02-.15.02-.22,0-.26-.12-.33-.41-.33h-6.38Z"/>
  </g>
  <g>
    <circle class="cls-1" cx="97.16" cy="49.93" r="32.74"/>
    <g>
      <path class="cls-1" d="M93.58,96.25c0-2.01,1.62-3.64,3.63-3.64h0c2,0,3.63,1.62,3.63,3.63h0c0,2.01-1.62,3.63-3.63,3.63h0c-2.01,0-3.63-1.62-3.63-3.62Z"/>
      <path class="cls-1" d="M52.45,75.86c-1.5-2.56-.63-5.85,1.95-7.34h0c2.56-1.49,5.84-.63,7.34,1.95h0c1.49,2.56.61,5.84-1.95,7.34h0c-.86.48-1.77.72-2.7.72h0c-1.84,0-3.63-.95-4.64-2.67Z"/>
      <path class="cls-1" d="M135.46,76.22c-1.73-1-2.32-3.22-1.32-4.96h0c1-1.73,3.22-2.32,4.95-1.32h0c1.74,1,2.33,3.22,1.33,4.95h0c-.67,1.17-1.89,1.81-3.15,1.81h0c-.62,0-1.23-.16-1.81-.48Z"/>
      <path class="cls-1" d="M54.65,30.97c-2.27-1.31-3.04-4.19-1.75-6.46h0c1.31-2.27,4.19-3.04,6.46-1.73h0c2.25,1.29,3.04,4.19,1.73,6.44h0c-.87,1.53-2.46,2.38-4.09,2.38h0c-.8,0-1.61-.2-2.35-.63Z"/>
      <path class="cls-1" d="M134.05,28.45c-1-1.73-.42-3.95,1.31-4.96h0c1.73-1.02,3.96-.42,4.96,1.31h0c1.02,1.73.44,3.94-1.29,4.96h0c-.58.34-1.21.5-1.83.5h0c-1.25,0-2.47-.64-3.15-1.8Z"/>
      <path class="cls-1" d="M93.39,3.64C93.38,1.63,95,0,97.01,0h0c2.01-.01,3.63,1.61,3.64,3.62h0c0,2-1.62,3.63-3.62,3.64h-.01c-2,0-3.63-1.62-3.63-3.62Z"/>
    </g>
    <g>
      <path class="cls-1" d="M72.25,93.22h0c-1.73-1-2.33-3.23-1.33-4.96h0c1-1.74,3.22-2.33,4.96-1.33h0c1.73.99,2.33,3.22,1.33,4.96h0c-.68,1.16-1.89,1.81-3.15,1.81h0c-.62,0-1.25-.16-1.81-.48Z"/>
      <path class="cls-1" d="M116.14,92.46c-1.34-2.32-.55-5.3,1.77-6.64h0c2.32-1.34,5.3-.55,6.64,1.77h0c1.34,2.33.55,5.3-1.77,6.64h0c-.76.45-1.6.66-2.43.66h0c-1.69,0-3.31-.87-4.21-2.43Z"/>
      <path class="cls-1" d="M47.22,50.04c0-2.01,1.62-3.64,3.63-3.64h0c2.01,0,3.63,1.62,3.64,3.63h0c0,2-1.62,3.63-3.63,3.63h0c-2.01,0-3.63-1.62-3.64-3.62Z"/>
      <path class="cls-1" d="M139.84,49.93v-.05h0v-.13h0c-.01-2.01,1.61-3.63,3.62-3.64h0c2-.01,3.63,1.61,3.64,3.62h0v.11h0v.1h0c0,2.01-1.62,3.63-3.63,3.63h0c-2,0-3.63-1.62-3.63-3.63Z"/>
      <path class="cls-1" d="M70.76,11.71c-1-1.73-.42-3.96,1.31-4.96h0c1.73-1,3.96-.42,4.96,1.31h0c1.02,1.74.42,3.96-1.31,4.97h0c-.57.33-1.2.48-1.81.48h0c-1.26,0-2.47-.64-3.15-1.8Z"/>
      <path class="cls-1" d="M117.3,14.75v-.02c-2.75-1.57-3.71-5.09-2.13-7.86h0c1.6-2.77,5.11-3.71,7.88-2.13h0c2.77,1.6,3.71,5.11,2.13,7.88h0c-1.08,1.85-3.02,2.88-5.02,2.88h0c-.96,0-1.96-.23-2.86-.75Z"/>
    </g>
  </g>
</svg>