<?xml version="1.0" encoding="UTF-8"?>
<svg id="_レイヤー_1" data-name="レイヤー_1" xmlns="http://www.w3.org/2000/svg" viewBox="0 0 619.51 97.89">
  <defs>
    <style>
      .cls-1 {
        fill: #b93a21;
      }

      .cls-2 {
        fill: #f39800;
      }

      .cls-3 {
        fill: #fcc80e;
      }
    </style>
  </defs>
  <g>
    <circle class="cls-2" cx="48.95" cy="48.95" r="32.1"/>
    <g>
      <path class="cls-2" d="M45.45,94.34c0-1.97,1.59-3.57,3.56-3.57h0c1.96,0,3.56,1.59,3.56,3.56h0c0,1.97-1.59,3.56-3.56,3.56h0c-1.97,0-3.56-1.59-3.56-3.55Z"/>
      <path class="cls-2" d="M5.13,74.36c-1.47-2.51-.61-5.74,1.91-7.19h0c2.51-1.46,5.72-.61,7.19,1.91h0c1.46,2.51.6,5.72-1.91,7.2h0c-.84.47-1.74.7-2.65.7h0c-1.81,0-3.56-.93-4.54-2.61Z"/>
      <path class="cls-2" d="M86.49,74.71c-1.7-.98-2.28-3.15-1.29-4.86h0c.98-1.7,3.15-2.28,4.85-1.29h0c1.71.98,2.29,3.15,1.3,4.85h0c-.65,1.15-1.85,1.78-3.08,1.78h0c-.6,0-1.21-.15-1.78-.47Z"/>
      <path class="cls-2" d="M7.28,30.36c-2.22-1.28-2.98-4.11-1.71-6.33h0c1.28-2.22,4.11-2.98,6.33-1.7h0c2.21,1.26,2.98,4.1,1.7,6.31h0c-.85,1.5-2.41,2.33-4.01,2.33h0c-.79,0-1.57-.2-2.3-.62Z"/>
      <path class="cls-2" d="M85.11,27.89c-.98-1.7-.42-3.88,1.28-4.86h0c1.7-1,3.88-.42,4.86,1.28h0c1,1.7.43,3.86-1.27,4.86h0c-.57.33-1.19.49-1.79.49h0c-1.22,0-2.42-.63-3.08-1.77Z"/>
      <path class="cls-2" d="M45.26,3.57C45.24,1.6,46.83,0,48.8,0h0c1.97-.01,3.56,1.58,3.57,3.54h0c0,1.96-1.59,3.56-3.55,3.57h-.01c-1.96,0-3.56-1.59-3.56-3.55Z"/>
    </g>
    <g>
      <path class="cls-3" d="M24.53,91.38h0c-1.7-.98-2.29-3.17-1.3-4.86h0c.98-1.71,3.15-2.29,4.86-1.3h0c1.7.97,2.29,3.15,1.3,4.86h0c-.66,1.14-1.85,1.78-3.08,1.78h0c-.6,0-1.22-.15-1.78-.47Z"/>
      <path class="cls-3" d="M67.56,90.63c-1.32-2.27-.54-5.19,1.73-6.51h0c2.27-1.32,5.19-.54,6.51,1.73h0c1.32,2.29.54,5.19-1.73,6.51h0c-.75.45-1.57.65-2.38.65h0c-1.65,0-3.24-.86-4.13-2.38Z"/>
      <path class="cls-3" d="M0,49.05c0-1.97,1.59-3.57,3.56-3.57h0c1.97,0,3.56,1.59,3.57,3.56h0c0,1.96-1.59,3.56-3.56,3.56h0c-1.97,0-3.56-1.59-3.57-3.54Z"/>
      <path class="cls-3" d="M90.79,48.94v-.05h0v-.13h0c-.01-1.97,1.58-3.56,3.55-3.57h0c1.96-.01,3.56,1.58,3.57,3.54h0v.11h0v.09h0c0,1.97-1.59,3.56-3.56,3.56h0c-1.96,0-3.56-1.59-3.56-3.56Z"/>
      <path class="cls-3" d="M23.07,11.48c-.98-1.7-.42-3.88,1.28-4.86h0c1.7-.98,3.88-.42,4.86,1.28h0c1,1.71.42,3.88-1.28,4.87h0c-.56.32-1.17.47-1.78.47h0c-1.23,0-2.42-.63-3.08-1.77Z"/>
      <path class="cls-3" d="M68.7,14.46v-.02c-2.69-1.54-3.64-4.99-2.09-7.71h0c1.56-2.71,5.01-3.64,7.72-2.09h0c2.71,1.56,3.64,5.01,2.09,7.73h0c-1.06,1.81-2.96,2.83-4.92,2.83h0c-.94,0-1.92-.23-2.81-.74Z"/>
    </g>
  </g>
  <g>
    <path class="cls-1" d="M120.35,37.15c1.99.09,3.98.13,6.02.13,3.45,0,6.95-.13,10.36-.35-.8-2.04-1.59-4.2-1.59-4.74,0-1.24,1.24-1.95,2.43-1.95.97,0,1.86.44,2.12,1.42.49,1.68,1.02,3.32,1.64,4.91,4.82-.49,9.21-1.15,12.7-1.95.18-.04.4-.09.57-.09,1.28,0,1.95,1.19,1.95,2.3,0,.93-.44,1.81-1.42,1.99-3.36.66-7.39,1.28-11.82,1.73,2.08,3.76,5.05,7.57,9.34,12.08.44.49.62,1.02.62,1.59,0,1.42-1.15,2.83-2.61,2.83-.49,0-.97-.13-1.46-.49-4.43-2.97-9.83-5-15.23-5s-9.12,2.04-9.12,6.2c0,3.45,3.9,6.42,13.37,6.42,5.05,0,7.88-.31,10.71-.88.27-.04.53-.09.8-.09,1.55,0,2.39,1.15,2.39,2.3,0,1.06-.71,2.17-2.17,2.35-3.5.58-6.42.84-11.73.84-12.26,0-18.01-4.34-18.01-10.98s6.15-10.23,13.77-10.23c4.2,0,7.39.84,11.2,2.43-2.66-2.83-4.74-5.67-6.51-8.94-4.29.31-8.81.49-13.28.49-1.68,0-3.36-.04-5.05-.09-1.33-.04-1.99-1.15-1.99-2.26,0-1.02.58-1.99,1.86-1.99h.13Z"/>
    <path class="cls-1" d="M206.17,45.96c1.19,0,2.43.8,2.43,2.3,0,.13,0,.31-.04.44-1.02,7.35-3.41,19.65-11.86,19.65-5.18,0-8.06-2.21-8.06-8.76,0-1.28.22-4.47.26-5.49,0-.49.04-.93.04-1.33,0-2.83-.62-3.1-2.48-3.1-3.59,0-11.73,6.24-14.7,18.02-.31,1.33-1.28,1.9-2.26,1.9-1.28,0-2.61-.97-2.61-2.52,0-1.37,5.13-19.52,12.79-36.12.44-.97,1.33-1.37,2.21-1.37,1.28,0,2.52.84,2.52,2.17,0,.35-.13.8-.35,1.24-2.7,5.22-5,11.2-7.7,18.28,4.56-4.74,7.52-6.24,11.38-6.24,4.16,0,5.67,2.61,5.67,7.21,0,.49,0,1.02-.04,1.59-.09,1.24-.22,4.25-.22,5.27,0,3.54,1.19,4.47,3.63,4.47,4.07,0,6.42-8.32,7.17-15.58.18-1.37,1.19-2.04,2.21-2.04Z"/>
    <path class="cls-1" d="M219.09,69.24c-.44.22-.84.31-1.24.31-1.42,0-2.48-1.33-2.48-2.66,0-.88.44-1.77,1.59-2.3,7.08-3.23,12.61-7.79,16.86-13.41-3.72-3.45-7.52-6.55-10.8-8.85-.53-.4-.8-.93-.8-1.5,0-1.2,1.11-2.48,2.48-2.48.49,0,.97.13,1.46.49,3.23,2.26,6.77,5.09,10.36,8.28,2.61-4.47,4.56-9.47,5.89-15.01.27-1.15,1.2-1.68,2.17-1.68,1.24,0,2.61.89,2.61,2.3,0,.84-2.21,10-6.99,17.75,2.57,2.43,5.05,4.96,7.44,7.44.44.44.62.97.62,1.51,0,1.42-1.37,2.83-2.74,2.83-.58,0-1.11-.22-1.55-.75-2.04-2.35-4.29-4.69-6.6-6.95-4.6,5.93-10.58,10.71-18.28,14.7Z"/>
    <path class="cls-1" d="M277.07,43.43c-2.74-1.95-7.7-4.74-11.51-6.42-.97-.44-1.37-1.19-1.37-1.95,0-1.28,1.06-2.61,2.52-2.61,1.28,0,8.98,3.76,12.92,6.51.84.57,1.19,1.33,1.19,2.04,0,1.42-1.33,2.79-2.66,2.79-.35,0-.75-.09-1.11-.35ZM267.42,69.02c-.18.04-.35.04-.53.04-1.68,0-2.66-1.42-2.66-2.74,0-1.02.62-2.04,1.9-2.26,17.09-2.92,25.94-10.05,30.06-23.06.31-.97,1.19-1.46,2.12-1.46,1.28,0,2.57.84,2.57,2.3,0,.22-.04.44-.09.71-3.5,13.19-14.78,23.77-33.37,26.47Z"/>
    <path class="cls-1" d="M342.62,41.31c0-.84-.53-1.33-1.2-1.33h-16.51c-3.67,5.09-10.05,10.09-11.86,10.09-1.37,0-2.48-1.28-2.48-2.52,0-.75.35-1.46,1.2-1.9,5.89-3.23,10.67-9.25,12.53-14.43.31-.88,1.15-1.28,2.04-1.28,1.24,0,2.57.8,2.57,2.12,0,.75-.93,2.79-1.37,3.67h14.61c3.19,0,5.18,1.77,5.18,5,0,.18-.04.4-.04.62-.97,15.14-11.91,26.29-32.49,27.66h-.18c-1.64,0-2.57-1.37-2.57-2.66,0-1.02.62-1.95,1.95-2.04,7.57-.4,13.85-2.39,18.64-5.58-3.32-3.45-8.41-7.3-10.8-8.59-.62-.35-.84-.89-.84-1.46,0-1.24,1.11-2.61,2.48-2.61.4,0,.84.09,1.24.35,2.52,1.46,8.37,5.71,11.69,9.16,3.67-3.76,5.84-8.59,6.24-14.21v-.09Z"/>
    <path class="cls-1" d="M363.87,32.85c0-1.42,1.2-2.08,2.44-2.08s2.39.66,2.39,2.08v14.96c0,8.94-2.48,16.42-9.56,20.89-.49.31-1.02.49-1.46.49-1.46,0-2.61-1.42-2.61-2.79,0-.71.31-1.37,1.06-1.86,5.53-3.67,7.75-9.43,7.75-16.73v-14.96ZM374.75,32.72c0-1.42,1.2-2.12,2.43-2.12s2.39.71,2.39,2.12v28.59c0,.62.27.93.66.93.13,0,.26-.04.4-.09,5.44-2.52,8.99-6.77,11.29-12.44.49-1.19,1.33-1.73,2.21-1.73,1.24,0,2.48,1.11,2.48,2.66,0,1.24-3.63,11.55-15.09,16.86-.89.4-1.77.57-2.57.57-2.39,0-4.2-1.68-4.2-4.78v-30.59Z"/>
    <path class="cls-1" d="M419.59,39.98c-3.14,4.16-9.65,9.74-11.82,9.74-1.46,0-2.52-1.28-2.52-2.52,0-.71.35-1.42,1.15-1.9,5.67-3.19,10.62-8.94,12.61-14.03.4-.88,1.28-1.28,2.17-1.28,1.24,0,2.57.75,2.57,2.08,0,.97-1.11,3.01-1.42,3.63h14.7c3.28,0,5,1.77,5,4.65,0,.35-.04.8-.09,1.19-1.95,13.94-9.34,25.41-28.9,27.49-.13,0-.26.04-.4.04-1.59,0-2.48-1.28-2.48-2.52,0-1.06.66-2.13,2.08-2.3,15.05-1.73,23.02-9.69,24.83-22.84.04-.22.04-.4.04-.57,0-.66-.31-.84-1.06-.84h-16.47Z"/>
    <path class="cls-1" d="M455.61,32.63c0-1.33,1.24-1.99,2.52-1.99s2.48.66,2.48,1.99v19.79c0,1.46-1.24,2.17-2.48,2.17s-2.52-.71-2.52-2.17v-19.79ZM462.25,69.77c-1.77,0-2.74-1.42-2.74-2.74,0-1.11.71-2.17,2.08-2.3,13.99-1.33,17.22-5.05,17.22-16.24v-15.89c0-1.33,1.19-1.95,2.43-1.95s2.39.62,2.39,1.95v15.89c0,14.56-5.67,19.87-21.07,21.29h-.31Z"/>
    <path class="cls-1" d="M499.25,65.83c-1.28,0-1.95-1.19-1.95-2.39s.66-2.35,1.95-2.35h35.63c1.33,0,1.95,1.19,1.95,2.35s-.62,2.39-1.95,2.39h-35.63ZM502.97,39.76c-1.33,0-1.99-1.15-1.99-2.3s.66-2.26,1.99-2.26h28.28c1.37,0,2.04,1.15,2.04,2.26s-.66,2.3-2.04,2.3h-28.28Z"/>
    <path class="cls-1" d="M550.2,54.19c-.75,0-1.46-.4-1.77-1.28-1.2-3.36-2.52-6.15-4.07-8.54-.22-.35-.31-.71-.31-1.06,0-1.15,1.11-2.12,2.26-2.12.62,0,1.28.31,1.77,1.06,3.36,5.09,4.51,9.52,4.51,9.87,0,1.2-1.24,2.08-2.39,2.08ZM574.45,42.55c-.75,11.73-5.05,22.04-19.87,26.6-.4.13-.75.18-1.11.18-1.46,0-2.26-1.11-2.26-2.21,0-.88.49-1.77,1.51-2.04,13.9-4.07,16.82-12.79,17.48-23.02.04-1.19,1.02-1.77,2.04-1.77s2.21.71,2.21,2.08v.18ZM559.49,52.29c-.88,0-1.68-.44-1.9-1.46-.66-3.28-1.64-6.73-2.74-9.34-.13-.31-.18-.58-.18-.84,0-1.11,1.15-1.86,2.3-1.86.84,0,1.68.4,2.08,1.37.97,2.57,1.86,5.4,2.7,9.74.04.13.04.27.04.44,0,1.2-1.19,1.95-2.3,1.95Z"/>
    <path class="cls-1" d="M597.07,39.98c-3.14,4.16-9.65,9.74-11.82,9.74-1.46,0-2.52-1.28-2.52-2.52,0-.71.35-1.42,1.15-1.9,5.67-3.19,10.62-8.94,12.61-14.03.4-.88,1.28-1.28,2.17-1.28,1.24,0,2.57.75,2.57,2.08,0,.97-1.11,3.01-1.42,3.63h14.7c3.28,0,5,1.77,5,4.65,0,.35-.04.8-.09,1.19-1.95,13.94-9.34,25.41-28.9,27.49-.13,0-.26.04-.4.04-1.59,0-2.48-1.28-2.48-2.52,0-1.06.66-2.13,2.08-2.3,15.05-1.73,23.02-9.69,24.83-22.84.04-.22.04-.4.04-.57,0-.66-.31-.84-1.06-.84h-16.47Z"/>
  </g>
</svg>