<?xml version="1.0" encoding="UTF-8"?>
<svg id="_レイヤー_1" data-name="レイヤー_1" xmlns="http://www.w3.org/2000/svg" viewBox="0 0 595.33 47.74">
  <defs>
    <style>
      .cls-1 {
        fill: #b93a21;
      }
    </style>
  </defs>
  <path class="cls-1" d="M2.37,8.99c2.37.1,4.73.16,7.15.16,4.1,0,8.26-.16,12.3-.42-.95-2.42-1.89-5-1.89-5.63,0-1.47,1.47-2.31,2.89-2.31,1.16,0,2.21.53,2.52,1.68.58,2,1.21,3.94,1.95,5.84,5.73-.58,10.94-1.37,15.09-2.31.21-.05.47-.11.68-.11,1.52,0,2.31,1.42,2.31,2.73,0,1.1-.53,2.16-1.68,2.37-4,.79-8.78,1.52-14.04,2.05,2.47,4.47,5.99,8.99,11.1,14.35.53.58.74,1.21.74,1.89,0,1.68-1.37,3.37-3.1,3.37-.58,0-1.16-.16-1.74-.58-5.26-3.52-11.67-5.94-18.09-5.94s-10.83,2.42-10.83,7.36c0,4.1,4.63,7.62,15.88,7.62,5.99,0,9.36-.37,12.72-1.05.32-.05.63-.11.95-.11,1.84,0,2.84,1.37,2.84,2.73,0,1.26-.84,2.58-2.58,2.79-4.15.68-7.62,1-13.93,1-14.56,0-21.4-5.15-21.4-13.04s7.31-12.15,16.35-12.15c5,0,8.78,1,13.3,2.89-3.16-3.37-5.63-6.73-7.73-10.62-5.1.37-10.46.58-15.77.58-2,0-4-.05-5.99-.11-1.58-.05-2.37-1.37-2.37-2.68,0-1.21.68-2.37,2.21-2.37h.16Z"/>
  <path class="cls-1" d="M104.32,19.46c1.42,0,2.89.95,2.89,2.73,0,.16,0,.37-.05.53-1.21,8.73-4.05,23.35-14.09,23.35-6.15,0-9.57-2.63-9.57-10.41,0-1.52.26-5.31.31-6.52,0-.58.05-1.1.05-1.58,0-3.37-.74-3.68-2.95-3.68-4.26,0-13.93,7.41-17.46,21.4-.37,1.58-1.52,2.26-2.68,2.26-1.52,0-3.1-1.16-3.1-3,0-1.63,6.1-23.19,15.2-42.91.53-1.16,1.58-1.63,2.63-1.63,1.53,0,3,1,3,2.58,0,.42-.16.95-.42,1.47-3.21,6.2-5.94,13.3-9.15,21.72,5.42-5.63,8.94-7.41,13.51-7.41,4.94,0,6.73,3.1,6.73,8.57,0,.58,0,1.21-.05,1.89-.11,1.47-.26,5.05-.26,6.26,0,4.21,1.42,5.31,4.31,5.31,4.84,0,7.62-9.89,8.52-18.51.21-1.63,1.42-2.42,2.63-2.42Z"/>
  <path class="cls-1" d="M119.67,47.11c-.53.26-1,.37-1.47.37-1.68,0-2.95-1.58-2.95-3.15,0-1.05.53-2.1,1.89-2.73,8.41-3.84,14.99-9.25,20.03-15.93-4.42-4.1-8.94-7.78-12.83-10.52-.63-.47-.95-1.1-.95-1.79,0-1.42,1.31-2.95,2.94-2.95.58,0,1.16.16,1.74.58,3.84,2.68,8.05,6.05,12.3,9.83,3.1-5.31,5.42-11.25,6.99-17.83.32-1.37,1.42-2,2.58-2,1.47,0,3.1,1.05,3.1,2.73,0,1-2.63,11.88-8.31,21.09,3.05,2.89,5.99,5.89,8.83,8.83.53.53.74,1.16.74,1.79,0,1.68-1.63,3.37-3.26,3.37-.68,0-1.32-.26-1.84-.89-2.42-2.79-5.1-5.57-7.83-8.26-5.47,7.05-12.57,12.72-21.72,17.46Z"/>
  <path class="cls-1" d="M188.54,16.46c-3.26-2.31-9.15-5.63-13.67-7.62-1.16-.53-1.63-1.42-1.63-2.31,0-1.53,1.26-3.1,3-3.1,1.52,0,10.67,4.47,15.35,7.73,1,.68,1.42,1.58,1.42,2.42,0,1.68-1.58,3.31-3.15,3.31-.42,0-.89-.11-1.32-.42ZM177.08,46.85c-.21.05-.42.05-.63.05-2,0-3.15-1.68-3.15-3.26,0-1.21.74-2.42,2.26-2.68,20.3-3.47,30.81-11.94,35.7-27.4.37-1.16,1.42-1.74,2.52-1.74,1.52,0,3.05,1,3.05,2.73,0,.26-.05.53-.1.84-4.15,15.67-17.56,28.24-39.65,31.44Z"/>
  <path class="cls-1" d="M266.41,13.93c0-1-.63-1.58-1.42-1.58h-19.61c-4.36,6.05-11.94,11.99-14.09,11.99-1.63,0-2.95-1.52-2.95-3,0-.89.42-1.74,1.42-2.26,6.99-3.84,12.67-10.99,14.88-17.14.37-1.05,1.37-1.52,2.42-1.52,1.47,0,3.05.95,3.05,2.52,0,.89-1.1,3.31-1.63,4.36h17.35c3.79,0,6.15,2.1,6.15,5.94,0,.21-.05.47-.05.74-1.16,17.98-14.14,31.23-38.59,32.86h-.21c-1.95,0-3.05-1.63-3.05-3.15,0-1.21.74-2.31,2.31-2.42,8.99-.47,16.46-2.84,22.14-6.63-3.94-4.1-9.99-8.68-12.83-10.2-.74-.42-1-1.05-1-1.74,0-1.47,1.31-3.1,2.94-3.1.47,0,1,.11,1.47.42,3,1.74,9.94,6.78,13.88,10.88,4.36-4.47,6.94-10.2,7.41-16.88v-.11Z"/>
  <path class="cls-1" d="M291.65,3.89c0-1.68,1.42-2.47,2.89-2.47s2.84.79,2.84,2.47v17.77c0,10.62-2.94,19.51-11.36,24.82-.58.37-1.21.58-1.74.58-1.74,0-3.1-1.68-3.1-3.31,0-.84.37-1.63,1.26-2.21,6.57-4.36,9.2-11.2,9.2-19.88V3.89ZM304.58,3.73c0-1.68,1.42-2.52,2.89-2.52s2.84.84,2.84,2.52v33.97c0,.74.32,1.1.79,1.1.16,0,.31-.05.47-.11,6.47-3,10.67-8.05,13.41-14.78.58-1.42,1.58-2.05,2.63-2.05,1.47,0,2.95,1.31,2.95,3.15,0,1.47-4.31,13.72-17.93,20.03-1.05.47-2.1.68-3.05.68-2.84,0-5-2-5-5.68V3.73Z"/>
  <path class="cls-1" d="M357.84,12.36c-3.73,4.94-11.46,11.57-14.04,11.57-1.74,0-3-1.52-3-3,0-.84.42-1.68,1.37-2.26,6.73-3.79,12.62-10.62,14.99-16.67.47-1.05,1.52-1.52,2.58-1.52,1.47,0,3.05.89,3.05,2.47,0,1.16-1.31,3.58-1.68,4.31h17.46c3.89,0,5.94,2.1,5.94,5.52,0,.42-.05.95-.1,1.42-2.31,16.56-11.09,30.18-34.34,32.65-.16,0-.31.05-.47.05-1.89,0-2.94-1.53-2.94-3,0-1.26.79-2.52,2.47-2.73,17.88-2.05,27.34-11.52,29.5-27.13.05-.26.05-.47.05-.68,0-.79-.37-1-1.26-1h-19.56Z"/>
  <path class="cls-1" d="M400.64,3.63c0-1.58,1.47-2.37,3-2.37s2.94.79,2.94,2.37v23.5c0,1.74-1.47,2.58-2.94,2.58s-3-.84-3-2.58V3.63ZM408.53,47.74c-2.1,0-3.26-1.68-3.26-3.26,0-1.31.84-2.58,2.47-2.73,16.62-1.58,20.45-5.99,20.45-19.3V3.58c0-1.58,1.42-2.31,2.89-2.31s2.84.73,2.84,2.31v18.88c0,17.3-6.73,23.61-25.03,25.29h-.37Z"/>
  <path class="cls-1" d="M452.48,43.07c-1.52,0-2.31-1.42-2.31-2.84s.79-2.79,2.31-2.79h42.33c1.58,0,2.31,1.42,2.31,2.79s-.74,2.84-2.31,2.84h-42.33ZM456.9,12.09c-1.58,0-2.37-1.37-2.37-2.73s.79-2.68,2.37-2.68h33.6c1.63,0,2.42,1.37,2.42,2.68s-.79,2.73-2.42,2.73h-33.6Z"/>
  <path class="cls-1" d="M513,29.24c-.9,0-1.74-.47-2.1-1.52-1.42-4-3-7.31-4.84-10.15-.26-.42-.37-.84-.37-1.26,0-1.37,1.31-2.52,2.68-2.52.74,0,1.53.37,2.1,1.26,4,6.05,5.36,11.31,5.36,11.73,0,1.42-1.47,2.47-2.84,2.47ZM541.81,15.41c-.89,13.93-5.99,26.19-23.61,31.6-.47.16-.89.21-1.31.21-1.74,0-2.68-1.31-2.68-2.63,0-1.05.58-2.1,1.79-2.42,16.51-4.84,19.98-15.2,20.77-27.34.05-1.42,1.21-2.1,2.42-2.1s2.63.84,2.63,2.47v.21ZM524.04,26.98c-1.05,0-2-.53-2.26-1.74-.79-3.89-1.95-7.99-3.26-11.09-.16-.37-.21-.68-.21-1,0-1.32,1.37-2.21,2.73-2.21,1,0,2,.47,2.47,1.63,1.16,3.05,2.21,6.42,3.21,11.57.05.16.05.32.05.53,0,1.42-1.42,2.31-2.73,2.31Z"/>
  <path class="cls-1" d="M568.68,12.36c-3.73,4.94-11.46,11.57-14.04,11.57-1.74,0-3-1.52-3-3,0-.84.42-1.68,1.37-2.26,6.73-3.79,12.62-10.62,14.99-16.67.47-1.05,1.52-1.52,2.58-1.52,1.47,0,3.05.89,3.05,2.47,0,1.16-1.31,3.58-1.68,4.31h17.46c3.89,0,5.94,2.1,5.94,5.52,0,.42-.05.95-.1,1.42-2.31,16.56-11.09,30.18-34.34,32.65-.16,0-.31.05-.47.05-1.89,0-2.94-1.53-2.94-3,0-1.26.79-2.52,2.47-2.73,17.88-2.05,27.34-11.52,29.5-27.13.05-.26.05-.47.05-.68,0-.79-.37-1-1.26-1h-19.56Z"/>
</svg>